<?xml version="1.0" encoding="utf-8"?>
<!-- Generator: Adobe Illustrator 25.2.3, SVG Export Plug-In . SVG Version: 6.00 Build 0)  -->
<svg version="1.1" id="Layer_1" xmlns="http://www.w3.org/2000/svg" xmlns:xlink="http://www.w3.org/1999/xlink" x="0px" y="0px"
	 viewBox="0 0 500 500" style="enable-background:new 0 0 500 500;" xml:space="preserve">
<style type="text/css">
	.st0{fill:url(#SVGID_1_);}
	.st1{fill:#FF7F18;}
</style>
<radialGradient id="SVGID_1_" cx="-776.6569" cy="-815.9716" r="0.6191" gradientTransform="matrix(544.5485 0 0 527.222 423101.75 430329.1875)" gradientUnits="userSpaceOnUse">
	<stop  offset="0" style="stop-color:#423325;stop-opacity:0.98"/>
	<stop  offset="1" style="stop-color:#1C0A00"/>
</radialGradient>
<path class="st0" d="M28.2,34.2h443.6v431.6H28.2V34.2z"/>
<path class="st1" d="M28.2,34.2h443.6v431.6H28.2V34.2z M8,485.9h484V14.1H8V485.9z M325,182.3c0-1.6,0.6-2.4,2.4-2.4h31.7
	c1.6,0,2.4,0.6,2.4,2.4v159.1c0,1.6-0.4,2.4-2.4,2.4h-31.3c-2,0-2.6-1-2.6-2.6V182.3H325L325,182.3z M322.8,136.5
	c0-12.9,9.1-20.5,20.5-20.5c12.3,0,20.5,8.2,20.5,20.5c0,13.3-8.6,20.5-20.9,20.5C331.3,157.1,322.8,149.8,322.8,136.5z
	 M232.1,248.6c-5.6-22.4-19-71.1-24-94.8h-0.4c-4.3,23.6-14.9,63.5-23.4,94.8H232.1L232.1,248.6z M176.1,281.3l-15.9,60.5
	c-0.4,1.6-1,2-3,2h-29.7c-2,0-2.4-0.6-2-3l57.3-200.4c1-3.6,1.6-6.9,2-16.8c0-1.5,0.6-2,1.6-2h42.4c1.5,0,2,0.4,2.4,2l64.2,217.6
	c0.4,1.6,0,2.6-1.6,2.6h-33.4c-1.6,0-2.6-0.4-3-1.8l-16.6-60.7L176.1,281.3L176.1,281.3z"/>
</svg>
