<?xml version="1.0" encoding="utf-8"?>
<!-- Generator: Adobe Illustrator 25.2.3, SVG Export Plug-In . SVG Version: 6.00 Build 0)  -->
<svg version="1.1" id="Layer_1" xmlns="http://www.w3.org/2000/svg" xmlns:xlink="http://www.w3.org/1999/xlink" x="0px" y="0px"
	 viewBox="0 0 500 500" style="enable-background:new 0 0 500 500;" xml:space="preserve">
<style type="text/css">
	.st0{fill:url(#SVGID_1_);}
	.st1{fill:#31C5F0;}
</style>
<radialGradient id="SVGID_1_" cx="-776.6565" cy="-815.9711" r="0.6179" gradientTransform="matrix(545.6736 0 0 528.3113 423975.4062 431217.7812)" gradientUnits="userSpaceOnUse">
	<stop  offset="0" style="stop-color:#34364E;stop-opacity:0.98"/>
	<stop  offset="1" style="stop-color:#0C0824"/>
</radialGradient>
<path class="st0" d="M28.2,34.2h443.7v431.6H28.2V34.2z"/>
<path class="st1" d="M28.2,34.2h443.7v431.6H28.2V34.2z M8,486h484V14H8V486z M334.4,207.7c-15.9,0-21.3,8.1-21.3,14.7
	c0,7.3,3.6,12.3,25,23.4c31.6,15.3,41.5,30.1,41.5,51.6c0,32.3-24.6,49.7-57.9,49.7c-17.6,0-32.7-3.6-41.3-8.6
	c-1.5-0.6-1.6-1.6-1.6-3.2v-29.8c0-2,1-2.6,2.4-1.6c12.7,8.2,27.3,11.9,40.5,11.9c15.9,0,22.6-6.7,22.6-15.7c0-7.3-4.7-13.7-25-24.2
	c-28.6-13.7-40.5-27.5-40.5-50.8c0-26,20.4-47.6,55.7-47.6c17.4,0,29.5,2.6,36.1,5.6c1.6,1,2,2.6,2,4.1v27.6c0,1.6-1,2.6-3,2
	C360.6,211.1,347.5,207.7,334.4,207.7L334.4,207.7z M161,231.7c4.7,0.4,8.2,0.4,16.3,0.4c23.6,0,45.8-8.2,45.8-40.3
	c0-25.6-15.9-38.5-42.8-38.5c-8.1,0-15.7,0.4-19.4,0.6L161,231.7L161,231.7z M125,124.6c0-1.5,2.8-2.4,4.5-2.4c12.9-0.6,32.1-1,52-1
	c55.9,0,77.7,30.7,77.7,69.7c0,51.2-37.1,73.2-82.7,73.2c-7.7,0-10.3-0.4-15.7-0.4v77.4c0,1.6-0.6,2.4-2.4,2.4h-30.8
	c-1.6,0-2.4-0.6-2.4-2.4L125,124.6L125,124.6z"/>
</svg>
